<?xml version="1.0" encoding="utf-8"?>
<!-- Generator: Adobe Illustrator 18.1.1, SVG Export Plug-In . SVG Version: 6.00 Build 0)  -->
<!DOCTYPE svg PUBLIC "-//W3C//DTD SVG 1.1//EN" "http://www.w3.org/Graphics/SVG/1.1/DTD/svg11.dtd">
<svg version="1.1"
	 id="designer__x2B__musician__x2B__writer__x2B__forhire__x2B__elsewhere__x2B__Ellipse_1__x2B__Ellipse_1__x2B__Layer_14__x2B__Hue_x2F_Saturation_1_xA0_Image_1_"
	 xmlns="http://www.w3.org/2000/svg" xmlns:xlink="http://www.w3.org/1999/xlink" x="0px" y="0px" viewBox="0 0 1279 251"
	 enable-background="new 0 0 1279 251" xml:space="preserve">
<path d="M64.9,2.7C64.2,1.2,63.2,0,60.7,0h-2.5C56,0,54.7,1.2,54,2.7L0,119.6v56.9h2.6c4,0,6.2-2.5,7.2-5l12.2-26.8h74.3l12.2,26.8
	c1.7,3.5,3.5,5,7.2,5h21.6c3.7,0,5.7-3.2,4.2-6.5L64.9,2.7z M34.1,117l24.4-54.7h0.7L84.1,117H34.1z"/>
<path d="M1279,77.4c-1,0.4-1.8,1-2.4,2.3l-24.9,56.2h-0.2l-25.1-56.2c-0.7-1.5-2-2.7-4.2-2.7h-22.4c-3.7,0-5.7,3.2-4.2,6.5l40.5,86
	l-35.3,74.8c-1.7,3.5,0.5,6.7,4.2,6.7h21.4c2,0,3.5-1.5,4.2-3l48.4-104.7V77.4z"/>
<g>
	<path d="M187.4,115.5c9.9,0,18.1,2.7,18.1,2.7c0.2-12.7-3.7-17.1-12.9-17.1c-9.2,0-22.1,2-27.8,3.7c-3.5,1-5.2-1.2-5.7-4.5
		l-2.2-12.9c-0.7-3.7,1.2-5.5,3.5-6.2c2-0.7,17.9-4.7,33.8-4.7c31.1,0,38.3,16.2,38.3,43.2v53.9c0,2.5-2.2,4.7-4.7,4.7h-8.9
		c-1.7,0-3-0.7-4.2-3.5l-3-6.7c-5.7,5.2-14.9,12.7-30.3,12.7c-19.9,0-33.5-12.9-33.5-34C147.6,129.1,162,115.5,187.4,115.5z
		 M187.9,159.7c8,0,15.7-6.7,17.1-9.7v-13.7c0,0-6.7-3-13.9-3c-9.7,0-16.2,5.5-16.2,13.4C174.9,154.2,180.2,159.7,187.9,159.7z"/>
	<path d="M255.5,83.7c0-2.7,2.2-4.7,4.7-4.7h9.4c2.2,0,3.7,1.2,4.5,3.2l3.5,9.7c3.5-5,12.7-15.4,28.1-15.4c11.7,0,22.1,3.7,19.1,9.9
		l-9.2,16.2c-1.2,2.2-3.7,3.2-5.7,2.2c-0.7-0.2-4.5-1.5-7.2-1.5c-9.9,0-15.9,6.7-17.6,10.2v60.1c0,3.5-2.2,4.7-5.7,4.7h-19.1
		c-2.5,0-4.7-2.2-4.7-4.7V83.7z"/>
	<path d="M376,76.5c28.1,0,50.9,23.9,50.9,51.9c0,28.6-22.9,52.4-50.9,52.4S325,157,325,128.4C325,100.3,347.9,76.5,376,76.5z
		 M376,154c13.2,0,23.9-11.4,23.9-25.6c0-13.9-10.7-25.1-23.9-25.1c-13.4,0-23.9,11.2-23.9,25.1C352.1,142.6,362.5,154,376,154z"/>
	<path d="M444.1,83.7c0-2.7,2.2-4.7,4.7-4.7h9.4c2.2,0,3.5,1.2,4.2,3l3.5,9.2c3.7-4,15.9-14.7,35-14.7c31.6,0,44.2,23.6,44.2,49.5
		v47.7c0,2.5-2.2,4.7-4.7,4.7h-20.4c-2.7,0-4.7-2.2-4.7-4.7v-49.2c0-12.9-6.7-21.1-18.6-21.1c-12.9,0-20.9,8.9-23.4,15.7v54.7
		c0,3.5-1.5,4.7-6.2,4.7h-18.4c-2.5,0-4.7-2.2-4.7-4.7V83.7z"/>
	<path d="M625.5,154l8.9-15.4c2-3.5,6.2-3.5,8.4-1.7c1.2,0.7,21.4,15.4,37.5,15.4c12.9,0,22.6-8.4,22.6-19.1
		c0-12.7-10.7-21.4-31.6-29.8c-23.4-9.4-46.7-24.4-46.7-53.7c0-22.1,16.4-47.7,55.9-47.7c25.3,0,44.7,12.9,49.7,16.6
		c2.5,1.5,3.2,5.7,1.5,8.2l-9.4,14.2c-2,3-5.7,5-8.7,3c-2-1.2-20.9-13.7-34.5-13.7c-14.2,0-21.9,9.4-21.9,17.4
		c0,11.7,9.2,19.6,29.3,27.8c24.1,9.7,51.9,24.1,51.9,56.2c0,25.6-22.1,49.2-57.2,49.2c-31.3,0-49.7-14.7-54.7-19.4
		C624.5,159.2,623.2,158,625.5,154z"/>
	<path d="M760.2,9.1c0-2.5,2.2-4.7,4.7-4.7H786c2.5,0,4.7,2.2,4.7,4.7v75.5c5-3.7,14.7-8.2,26.3-8.2c31.6,0,44.5,24.4,44.5,49.5
		v47.7c0,2.5-2.2,4.7-4.7,4.7h-20.1c-2.7,0-4.7-2.2-4.7-4.7v-48c0-13.7-7.7-22.4-19.6-22.4c-11.4,0-19.1,7.5-21.6,17.6v52.7
		c0,2.7-1.5,4.7-5.2,4.7h-20.6c-2.5,0-4.7-2.2-4.7-4.7V9.1z"/>
	<path d="M928.2,76.5c25.6,0,46.5,19.4,46.5,46.2c0,1.7-0.2,5-0.5,6.7c-0.2,2.5-2.5,4.2-4.7,4.2h-63.6c0.7,10.2,9.4,21.6,23.9,21.6
		c7.7,0,14.9-3,19.4-6.2c2.5-1.5,4.7-2,6.5,0l10.2,11.7c1.7,1.7,2.2,4.5-0.2,6.5c-8.2,7.7-20.9,13.7-37,13.7
		c-29.8,0-50.9-23.6-50.9-52.2C877.5,100.6,898.6,76.5,928.2,76.5z M945.6,116.2c-0.7-9.2-8.7-16.9-18.1-16.9
		c-9.9,0-18.1,7.5-19.4,16.9H945.6z"/>
	<path d="M991.5,9.1c0-2.5,2.2-4.7,4.7-4.7h21.1c2.5,0,4.7,2.2,4.7,4.7v107.6l34.3-34.8c1.7-1.5,3.5-3,6.2-3h22.6
		c4.2,0,5.7,4.5,3.2,7.2l-37,37.8l44.2,47.5c2.5,2.7,1,7-3.2,7h-26.8c-1.5,0-3.5-1-4.2-2l-39.3-44.7v42c0,2.5-2.2,4.7-4.7,4.7h-21.1
		c-2.5,0-4.7-2.2-4.7-4.7V9.1z"/>
	<path d="M1147,76.5c25.6,0,46.5,19.4,46.5,46.2c0,1.7-0.2,5-0.5,6.7c-0.2,2.5-2.5,4.2-4.7,4.2h-63.6c0.7,10.2,9.4,21.6,23.9,21.6
		c7.7,0,14.9-3,19.4-6.2c2.5-1.5,4.7-2,6.5,0l10.2,11.7c1.7,1.7,2.2,4.5-0.2,6.5c-8.2,7.7-20.9,13.7-37,13.7
		c-29.8,0-50.9-23.6-50.9-52.2C1096.3,100.6,1117.5,76.5,1147,76.5z M1164.4,116.2c-0.7-9.2-8.7-16.9-18.1-16.9
		c-9.9,0-18.1,7.5-19.4,16.9H1164.4z"/>
</g>
</svg>
