<?xml version="1.0" encoding="utf-8"?>
<!-- Generator: Adobe Illustrator 18.1.1, SVG Export Plug-In . SVG Version: 6.00 Build 0)  -->
<!DOCTYPE svg PUBLIC "-//W3C//DTD SVG 1.1//EN" "http://www.w3.org/Graphics/SVG/1.1/DTD/svg11.dtd">
<svg version="1.1"
	 id="Layer_1" sodipodi:docbase="C:\Documents and Settings\Compaq_Owner\My Documents" sodipodi:docname="The_Onion.svg" inkscape:version="0.44.1" sodipodi:version="0.32" xmlns:dc="http://purl.org/dc/elements/1.1/" xmlns:inkscape="http://www.inkscape.org/namespaces/inkscape" xmlns:sodipodi="http://sodipodi.sourceforge.net/DTD/sodipodi-0.dtd" xmlns:svg="http://www.w3.org/2000/svg" xmlns:rdf="http://www.w3.org/1999/02/22-rdf-syntax-ns#" xmlns:cc="http://web.resource.org/cc/"
	 xmlns="http://www.w3.org/2000/svg" xmlns:xlink="http://www.w3.org/1999/xlink" x="0px" y="0px" viewBox="-140 375.5 39.7 41.9"
	 enable-background="new -140 375.5 39.7 41.9" xml:space="preserve">
<sodipodi:namedview  inkscape:current-layer="Layer_1" inkscape:window-y="110" inkscape:window-x="110" inkscape:window-width="853" inkscape:window-height="573" inkscape:pageshadow="2" inkscape:pageopacity="0.0" guidetolerance="10.0" id="base" inkscape:zoom="2.336328" inkscape:cy="21.768499" inkscape:cx="164.57449" objecttolerance="10.0" gridtolerance="10.0" bordercolor="#666666" pagecolor="#ffffff" borderopacity="1.0">
	</sodipodi:namedview>
<g id="g1945">
	<path id="path1947" fill="#008240" d="M-138.7,413.5c-0.6-0.9,1.8-1.3,2.2-2.3c2.2-4.1-1.7-2.4-3.3-11.8
		c-3.1-17.7,27.2-17.7,31.2-18.4c3.7-0.6-0.1-5.5,2.9-5.5c1,0,0,2.5,1,2.9c1,0.4,1.6-2.3,2.6-1.5c1.4,1.2-1.3,2.3-0.6,3
		c0.5,0.5,1.8-0.5,2.3,0.2c0.8,1.1-1.3,1.9-3.1,2.2c-6.7,1.1,7.6,30.3-15.6,34.3c-6.1,1.1-9-4.2-13.6-1.6c-1.1,0.6-1.9,3.1-2.6,2.1
		c-0.4-0.6,0.7-1.7,0-2.1c-0.5-0.3-1.2,0.9-1.7,0.5c-0.4-0.4,0.2-1-0.2-1.5C-137.6,413.6-138.3,414-138.7,413.5z M-129.7,389.2
		c3.7-2.7,10.7-4.9,9.2-4.8c-5.1,0.2-15.5,4.4-16,10.8C-136.6,397.2-133.3,391.9-129.7,389.2z M-123.2,397.2
		c6.6-9.1,16.5-12.4,15.3-13.6c-1.3-1.3-7.3,0.5-7.3,0.5c-9.2,3.2-19.2,9.2-19.8,16.8c-0.2,2.2,0.4,6.3,3.2,8.1
		C-129.8,410.2-126.5,401.8-123.2,397.2z M-116,411.8c8.6-3.1,8.5-14.2,7.1-11.1c-1.4,3.1-2.3,5.5-5.3,7.3c-2.4,1.3-4,1.5-6.9,1.5
		c-2.4-0.1-4.6-2-5.3,1C-127.2,413.6-119.1,412.9-116,411.8z M-122.9,405.6c2.5,0.4,10.4-1.4,13.1-10.8c2.7-9.7,1.3-7.7-6.6,0.5
		C-120.7,399.8-124.1,405.4-122.9,405.6z"/>
</g>
</svg>
