<?xml version="1.0" encoding="utf-8"?>
<!-- Generator: Adobe Illustrator 17.0.0, SVG Export Plug-In . SVG Version: 6.00 Build 0)  -->
<!DOCTYPE svg PUBLIC "-//W3C//DTD SVG 1.1//EN" "http://www.w3.org/Graphics/SVG/1.1/DTD/svg11.dtd">
<svg version="1.1" id="Layer_1" xmlns="http://www.w3.org/2000/svg" xmlns:xlink="http://www.w3.org/1999/xlink" x="0px" y="0px"
	 width="115.147px" height="43.755px" viewBox="0 0 115.147 43.755" enable-background="new 0 0 115.147 43.755"
	 xml:space="preserve">
<g>
	<path fill="#333333" d="M28.665,13.556l-15.952,3.234V0H6.157v33.694c-0.536,0.153-1.392,0.356-1.922,0.621
		c-3.308,1.654-5.04,4.895-3.868,7.24c1.172,2.344,4.803,2.903,8.112,1.249c2.556-1.278,4.164-3.504,4.225-5.531l0.009-0.002V23.07
		l15.952-3.235v10.181c-0.52,0.152-1.359,0.349-1.874,0.607c-3.308,1.654-5.04,4.896-3.868,7.24
		c1.172,2.344,4.803,2.903,8.112,1.249c2.604-1.302,4.231-3.587,4.234-5.645v-0.005V0h-6.603V13.556z"/>
	<path fill="#333333" d="M56.607,28.736c-1.114,1.418-3.089,2.785-5.571,2.785c-2.734,0-4.507-1.114-4.507-4.507V12.176h-6.432
		v17.37c0,4.761,2.532,7.697,7.901,7.697c4.001,0,6.937-1.873,8.609-3.697v3.089h6.431v-24.46h-6.431V28.736z"/>
	<path fill="#333333" d="M97.588,11.568c-3.748,0-6.989,2.228-8.407,4.406c-0.861-2.734-3.19-4.406-6.786-4.406
		c-3.747,0-6.938,2.329-8.002,3.747v-3.14h-6.431v24.46h6.431V20.127c0.962-1.317,2.836-2.836,5.064-2.836
		c2.633,0,3.646,1.621,3.646,3.899v15.446h6.482V20.127c0.912-1.317,2.785-2.836,5.064-2.836c2.633,0,3.646,1.621,3.646,3.899
		v15.446h6.482V18.962C104.779,13.948,102.095,11.568,97.588,11.568z"/>

		<ellipse transform="matrix(0.8943 -0.4474 0.4474 0.8943 -3.3217 53.5414)" fill="#333333" cx="111.678" cy="33.802" rx="3.57" ry="3.025"/>
</g>
</svg>
